This is a stereoscopic 3D rip of IMAX Ocean Wonderland, for new 3D TVs or computers with Nvidia 3D Vision. Tested with Stereoscopic Player. Enjoy!

Title: Ocean Wonderland (2003)
Rated: Not Rated
Runtime: 41 Minutes
Genre: Short | Documentary | Family

IMDB Page: http://www.imdb.com/title/tt0404286/

General
Unique ID : 249481202772378684612914968839020263614 (0xBBB054F7463A4E7890FE7F368EEAB8BE)
Complete name : [filepath]\IMAX Ocean Wonderland 3D.mkv
Format : Matroska
File size : 3.79 GiB
Duration : 40mn 39s
Overall bit rate : 13.3 Mbps
Movie name : 3DSBSTORRENTS.COM
Encoded date : UTC 2010-12-13 02:52:13
Writing application : mkvmerge v4.4.0 ('Die Wiederkehr') built on Oct 31 2010 21:52:48
Writing library : libebml v1.0.0 + libmatroska v1.0.0

Video
ID : 1
Format : AVC
Format/Info : Advanced Video Codec
Format profile : High@L5.1
Format settings, CABAC : Yes
Format settings, ReFrames : 2 frames
Muxing mode : Header stripping
Codec ID : V_MPEG4/ISO/AVC
Duration : 40mn 39s
Bit rate : 8 755 Kbps
Width : 1 920 pixels
Height : 1 080 pixels
Display aspect ratio : 16:9
Frame rate : 23.976 fps
Color space : YUV
Chroma subsampling : 4:2:0
Bit depth : 8 bits
Scan type : Progressive
Bits/(Pixel*Frame) : 0.176
Stream size : 2.49 GiB (66%)
Title : 3DSBSTORRENTS.COM
Writing library : x264 core
Color primaries : BT.709-5, BT.1361, IEC 61966-2-4, SMPTE RP177
Transfer characteristics : BT.709-5, BT.1361
Matrix coefficients : BT.709-5, BT.1361, IEC 61966-2-4 709, SMPTE RP177

Audio #1
ID : 2
Format : DTS
Format/Info : Digital Theater Systems
Format profile : HRA / Core
Muxing mode : Header stripping
Codec ID : A_DTS
Duration : 40mn 39s
Bit rate mode : Constant
Bit rate : 2 047 Kbps / 1 510 Kbps
Channel(s) : 6 channels
Channel positions : Front: L C R, Side: L R, LFE
Sampling rate : 48.0 KHz
Bit depth : 16 bits
Compression mode : Lossy
Stream size : 595 MiB (15%)
Language : English

Audio #2
ID : 3
Format : DTS
Format/Info : Digital Theater Systems
Muxing mode : Header stripping
Codec ID : A_DTS
Duration : 40mn 39s
Bit rate mode : Constant
Bit rate : 755 Kbps
Channel(s) : 6 channels
Channel positions : Front: L C R, Side: L R, LFE
Sampling rate : 48.0 KHz
Bit depth : 16 bits
Compression mode : Lossy
Stream size : 219 MiB (6%)
Language : German

Audio #3
ID : 4
Format : DTS
Format/Info : Digital Theater Systems
Muxing mode : Header stripping
Codec ID : A_DTS
Duration : 40mn 39s
Bit rate mode : Constant
Bit rate : 755 Kbps
Channel(s) : 6 channels
Channel positions : Front: L C R, Side: L R, LFE
Sampling rate : 48.0 KHz
Bit depth : 16 bits
Compression mode : Lossy
Stream size : 219 MiB (6%)
Language : French

Audio #4
ID : 5
Format : DTS
Format/Info : Digital Theater Systems
Muxing mode : Header stripping
Codec ID : A_DTS
Duration : 40mn 39s
Bit rate mode : Constant
Bit rate : 755 Kbps
Channel(s) : 6 channels
Channel positions : Front: L C R, Side: L R, LFE
Sampling rate : 48.0 KHz
Bit depth : 16 bits
Compression mode : Lossy
Stream size : 219 MiB (6%)
Language : Italian